<?xml version="1.0" encoding="UTF-8"?>
<svg version="1.1" xmlns="http://www.w3.org/2000/svg" width="162" height="162">
<path d="M0 0 C53.46 0 106.92 0 162 0 C162 53.46 162 106.92 162 162 C108.54 162 55.08 162 0 162 C0 108.54 0 55.08 0 0 Z " fill="#14110F" transform="translate(0,0)"/>
<path d="M0 0 C5.94 0 11.88 0 18 0 C18 5.94 18 11.88 18 18 C23.94 18 29.88 18 36 18 C36 23.94 36 29.88 36 36 C41.94 36 47.88 36 54 36 C54 30.06 54 24.12 54 18 C59.94 18 65.88 18 72 18 C72 12.06 72 6.12 72 0 C77.94 0 83.88 0 90 0 C90 23.76 90 47.52 90 72 C95.94 72 101.88 72 108 72 C108 77.94 108 83.88 108 90 C90.18 90 72.36 90 54 90 C54 84.06 54 78.12 54 72 C48.06 72 42.12 72 36 72 C36 77.94 36 83.88 36 90 C18.18 90 0.36 90 -18 90 C-18 84.06 -18 78.12 -18 72 C-12.06 72 -6.12 72 0 72 C0 48.24 0 24.48 0 0 Z " fill="#FF8F1F" transform="translate(36,36)"/>
<path d="M0 0 C5.94 0 11.88 0 18 0 C18 5.94 18 11.88 18 18 C29.88 18 41.76 18 54 18 C54 23.94 54 29.88 54 36 C36.18 36 18.36 36 0 36 C0 24.12 0 12.24 0 0 Z " fill="#FF2F05" transform="translate(90,90)"/>
<path d="M0 0 C5.94 0 11.88 0 18 0 C18 11.88 18 23.76 18 36 C0.18 36 -17.64 36 -36 36 C-36 30.06 -36 24.12 -36 18 C-24.12 18 -12.24 18 0 18 C0 12.06 0 6.12 0 0 Z " fill="#FF2F05" transform="translate(54,90)"/>
<path d="M0 0 C5.94 0 11.88 0 18 0 C18 11.88 18 23.76 18 36 C6.12 36 -5.76 36 -18 36 C-18 30.06 -18 24.12 -18 18 C-12.06 18 -6.12 18 0 18 C0 12.06 0 6.12 0 0 Z " fill="#FFB71A" transform="translate(108,36)"/>
<path d="M0 0 C5.94 0 11.88 0 18 0 C18 5.94 18 11.88 18 18 C23.94 18 29.88 18 36 18 C36 23.94 36 29.88 36 36 C24.12 36 12.24 36 0 36 C0 24.12 0 12.24 0 0 Z " fill="#FFB71A" transform="translate(36,36)"/>
<path d="M0 0 C5.94 0 11.88 0 18 0 C18 5.94 18 11.88 18 18 C12.06 18 6.12 18 0 18 C0 12.06 0 6.12 0 0 Z " fill="#FB6228" transform="translate(108,90)"/>
<path d="M0 0 C5.94 0 11.88 0 18 0 C18 5.94 18 11.88 18 18 C12.06 18 6.12 18 0 18 C0 12.06 0 6.12 0 0 Z " fill="#14110F" transform="translate(90,90)"/>
<path d="M0 0 C5.94 0 11.88 0 18 0 C18 5.94 18 11.88 18 18 C12.06 18 6.12 18 0 18 C0 12.06 0 6.12 0 0 Z " fill="#FB6228" transform="translate(72,90)"/>
<path d="M0 0 C5.94 0 11.88 0 18 0 C18 5.94 18 11.88 18 18 C12.06 18 6.12 18 0 18 C0 12.06 0 6.12 0 0 Z " fill="#14110F" transform="translate(54,90)"/>
<path d="M0 0 C5.94 0 11.88 0 18 0 C18 5.94 18 11.88 18 18 C12.06 18 6.12 18 0 18 C0 12.06 0 6.12 0 0 Z " fill="#FB6228" transform="translate(36,90)"/>
<path d="M0 0 C5.94 0 11.88 0 18 0 C18 5.94 18 11.88 18 18 C12.06 18 6.12 18 0 18 C0 12.06 0 6.12 0 0 Z " fill="#FFDB1A" transform="translate(108,36)"/>
<path d="M0 0 C5.94 0 11.88 0 18 0 C18 5.94 18 11.88 18 18 C12.06 18 6.12 18 0 18 C0 12.06 0 6.12 0 0 Z " fill="#FFDB1A" transform="translate(36,36)"/>
</svg>
